# Made in Blockbench 4.9.4
mtllib abra.mtl

o cube
v 0.1875 -0.125 0.125
v 0.1875 -0.125 -0.125
v 0.1875 -0.25 0.125
v 0.1875 -0.25 -0.125
v -0.0625 -0.125 -0.125
v -0.0625 -0.125 0.125
v -0.0625 -0.25 -0.125
v -0.0625 -0.25 0.125
vt 0.078125 0.875
vt 0.015625 0.875
vt 0.015625 0.90625
vt 0.078125 0.90625
vt 0.015625 0.90625
vt 0.078125 0.90625
vt 0.078125 0.875
vt 0.015625 0.875
vt 0.015625 0.90625
vt 0.078125 0.90625
vt 0.078125 0.875
vt 0.015625 0.875
vt 0.015625 0.90625
vt 0.078125 0.90625
vt 0.078125 0.875
vt 0.015625 0.875
vt 0.203125 0.890625
vt 0.234375 0.890625
vt 0.234375 0.859375
vt 0.203125 0.859375
vn 0 0 -1
vn 1 0 0
vn 0 0 1
vn -1 0 0
vn 0 -1 0
usemtl m_a8b5e7e7-7b10-1f76-9399-a6f694d1c092
f 4/4/1 7/3/1 5/2/1 2/1/1
f 3/8/2 4/7/2 2/6/2 1/5/2
f 8/12/3 3/11/3 1/10/3 6/9/3
f 7/16/4 8/15/4 6/14/4 5/13/4
f 7/20/5 4/19/5 3/18/5 8/17/5
o cube
v 0.1875 0.3125 -0.1875
v 0.1875 0.3125 -0.375
v 0.1875 0.125 -0.1875
v 0.1875 0.125 -0.375
v -0.0625 0.3125 -0.375
v -0.0625 0.3125 -0.1875
v -0.0625 0.125 -0.375
v -0.0625 0.125 -0.1875
vt 0.515625 0.96875
vt 0.59375 0.96875
vt 0.59375 0.921875
vt 0.515625 0.921875
vt 0.453125 0.96875
vt 0.5 0.96875
vt 0.5 0.921875
vt 0.453125 0.921875
vt 0.390625 0.96875
vt 0.4375 0.96875
vt 0.4375 0.921875
vt 0.390625 0.921875
vt 0.515625 0.96875
vt 0.59375 0.96875
vt 0.59375 0.921875
vt 0.515625 0.921875
vt 0.515625 0.90625
vt 0.59375 0.90625
vt 0.59375 0.859375
vt 0.515625 0.859375
vn 0 0 -1
vn 1 0 0
vn -1 0 0
vn 0 1 0
vn 0 -1 0
usemtl m_a8b5e7e7-7b10-1f76-9399-a6f694d1c092
f 12/24/6 15/23/6 13/22/6 10/21/6
f 11/28/7 12/27/7 10/26/7 9/25/7
f 15/32/8 16/31/8 14/30/8 13/29/8
f 14/36/9 9/35/9 10/34/9 13/33/9
f 15/40/10 12/39/10 11/38/10 16/37/10
o cube
v 0.1875 0.3125 0.375
v 0.1875 0.3125 0.1875
v 0.1875 0.125 0.375
v 0.1875 0.125 0.1875
v -0.0625 0.3125 0.1875
v -0.0625 0.3125 0.375
v -0.0625 0.125 0.1875
v -0.0625 0.125 0.375
vt 0.390625 0.96875
vt 0.4375 0.96875
vt 0.4375 0.921875
vt 0.390625 0.921875
vt 0.515625 0.96875
vt 0.59375 0.96875
vt 0.59375 0.921875
vt 0.515625 0.921875
vt 0.453125 0.96875
vt 0.5 0.96875
vt 0.5 0.921875
vt 0.453125 0.921875
vt 0.609375 0.96875
vt 0.6875 0.96875
vt 0.6875 0.921875
vt 0.609375 0.921875
vt 0.515625 0.90625
vt 0.59375 0.90625
vt 0.59375 0.859375
vt 0.515625 0.859375
vn 1 0 0
vn 0 0 1
vn -1 0 0
vn 0 1 0
vn 0 -1 0
usemtl m_a8b5e7e7-7b10-1f76-9399-a6f694d1c092
f 19/44/11 20/43/11 18/42/11 17/41/11
f 24/48/12 19/47/12 17/46/12 22/45/12
f 23/52/13 24/51/13 22/50/13 21/49/13
f 22/56/14 17/55/14 18/54/14 21/53/14
f 23/60/15 20/59/15 19/58/15 24/57/15
o cube
v 0.25 0.5625 0.1875
v 0.25 0.5625 -0.1875
v 0.25 0.1875 0.1875
v 0.25 0.1875 -0.1875
v -0.125 0.5625 -0.1875
v -0.125 0.5625 0.1875
v -0.125 0.1875 -0.1875
v -0.125 0.1875 0.1875
vt 0.34375 0.84375
vt 0.4375 0.84375
vt 0.4375 0.75
vt 0.34375 0.75
vt 0.234375 0.734375
vt 0.328125 0.734375
vt 0.328125 0.640625
vt 0.234375 0.640625
vt 0.234375 0.84375
vt 0.328125 0.84375
vt 0.328125 0.75
vt 0.234375 0.75
vt 0.125 0.84375
vt 0.21875 0.84375
vt 0.21875 0.75
vt 0.125 0.75
vt 0.125 0.640625
vt 0.125 0.734375
vt 0.21875 0.734375
vt 0.21875 0.640625
vt 0.234375 0.734375
vt 0.328125 0.734375
vt 0.328125 0.640625
vt 0.234375 0.640625
vn 0 0 -1
vn 1 0 0
vn 0 0 1
vn -1 0 0
vn 0 1 0
vn 0 -1 0
usemtl m_a8b5e7e7-7b10-1f76-9399-a6f694d1c092
f 28/64/16 31/63/16 29/62/16 26/61/16
f 27/68/17 28/67/17 26/66/17 25/65/17
f 32/72/18 27/71/18 25/70/18 30/69/18
f 31/76/19 32/75/19 30/74/19 29/73/19
f 30/80/20 25/79/20 26/78/20 29/77/20
f 31/84/21 28/83/21 27/82/21 32/81/21
o cube
v 0.06875000000000009 0.6875 -0.0625
v 0.06875000000000009 0.6875 -0.25
v 0.06875000000000009 0.5 -0.0625
v 0.06875000000000009 0.5 -0.25
v 0.0625 0.6875 -0.25
v 0.0625 0.6875 -0.0625
v 0.0625 0.5 -0.25
v 0.0625 0.5 -0.0625
vt 0.046875 0.359375
vt 0.09375 0.359375
vt 0.09375 0.3125
vt 0.046875 0.3125
vt 0 0.421875
vt 0.046875 0.421875
vt 0.046875 0.375
vt 0 0.375
vn 1 0 0
vn -1 0 0
usemtl m_a8b5e7e7-7b10-1f76-9399-a6f694d1c092
f 35/88/22 36/87/22 34/86/22 33/85/22
f 39/92/23 40/91/23 38/90/23 37/89/23
o cube
v 0.06875000000000009 0.6875 0.25
v 0.06875000000000009 0.6875 0.0625
v 0.06875000000000009 0.5 0.25
v 0.06875000000000009 0.5 0.0625
v 0.0625 0.6875 0.0625
v 0.0625 0.6875 0.25
v 0.0625 0.5 0.0625
v 0.0625 0.5 0.25
vt 0 0.359375
vt 0.046875 0.359375
vt 0.046875 0.3125
vt 0 0.3125
vt 0.046875 0.421875
vt 0.09375 0.421875
vt 0.09375 0.375
vt 0.046875 0.375
vn 1 0 0
vn -1 0 0
usemtl m_a8b5e7e7-7b10-1f76-9399-a6f694d1c092
f 43/96/24 44/95/24 42/94/24 41/93/24
f 47/100/25 48/99/25 46/98/25 45/97/25
o cube
v 0.12475618749999995 -0.14369375 0.22123125
v 0.12475618749999995 -0.14369375 0.09623124999999999
v 0.12475618749999995 -0.45619375 0.22123125
v 0.12475618749999995 -0.45619375 0.09623124999999999
v -0.00024374999999998703 -0.14369375 0.09623124999999999
v -0.00024374999999998703 -0.14369375 0.22123125
v -0.00024374999999998703 -0.45619375 0.09623124999999999
v -0.00024374999999998703 -0.45619375 0.22123125
vt 0.09375 0.765625
vt 0.0625 0.765625
vt 0.0625 0.84375
vt 0.09375 0.84375
vt 0.046875 0.765625
vt 0.015625 0.765625
vt 0.015625 0.84375
vt 0.046875 0.84375
vt 0.09375 0.765625
vt 0.0625 0.765625
vt 0.0625 0.84375
vt 0.09375 0.84375
vt 0.046875 0.765625
vt 0.015625 0.765625
vt 0.015625 0.84375
vt 0.046875 0.84375
vt 0.171875 0.875
vt 0.140625 0.875
vt 0.140625 0.90625
vt 0.171875 0.90625
vn 0 0 -1
vn 1 0 0
vn 0 0 1
vn -1 0 0
vn 0 1 0
usemtl m_a8b5e7e7-7b10-1f76-9399-a6f694d1c092
f 52/104/26 55/103/26 53/102/26 50/101/26
f 51/108/27 52/107/27 50/106/27 49/105/27
f 56/112/28 51/111/28 49/110/28 54/109/28
f 55/116/29 56/115/29 54/114/29 53/113/29
f 54/120/30 49/119/30 50/118/30 53/117/30
o cube
v 0.12506874999999995 -0.14385000000000003 -0.09604374999999998
v 0.12506874999999995 -0.14385000000000003 -0.22104374999999998
v 0.12506874999999995 -0.45635000000000003 -0.09604374999999998
v 0.12506874999999995 -0.45635000000000003 -0.22104374999999998
v 0.0000687499999999508 -0.14385000000000003 -0.22104374999999998
v 0.0000687499999999508 -0.14385000000000003 -0.09604374999999998
v 0.0000687499999999508 -0.45635000000000003 -0.22104374999999998
v 0.0000687499999999508 -0.45635000000000003 -0.09604374999999998
vt 0.09375 0.765625
vt 0.0625 0.765625
vt 0.0625 0.84375
vt 0.09375 0.84375
vt 0.046875 0.765625
vt 0.015625 0.765625
vt 0.015625 0.84375
vt 0.046875 0.84375
vt 0.09375 0.765625
vt 0.0625 0.765625
vt 0.0625 0.84375
vt 0.09375 0.84375
vt 0.046875 0.765625
vt 0.015625 0.765625
vt 0.015625 0.84375
vt 0.046875 0.84375
vt 0.171875 0.875
vt 0.140625 0.875
vt 0.140625 0.90625
vt 0.171875 0.90625
vn 0 0 -1
vn 1 0 0
vn 0 0 1
vn -1 0 0
vn 0 1 0
usemtl m_a8b5e7e7-7b10-1f76-9399-a6f694d1c092
f 60/124/31 63/123/31 61/122/31 58/121/31
f 59/128/32 60/127/32 58/126/32 57/125/32
f 64/132/33 59/131/33 57/130/33 62/129/33
f 63/136/34 64/135/34 62/134/34 61/133/34
f 62/140/35 57/139/35 58/138/35 61/137/35
o cube
v 0.1875 0.1875 0.1875
v 0.1875 0.1875 -0.1875
v 0.1875 -0.125 0.1875
v 0.1875 -0.125 -0.1875
v -0.0625 0.1875 -0.1875
v -0.0625 0.1875 0.1875
v -0.0625 -0.125 -0.1875
v -0.0625 -0.125 0.1875
vt 0.109375 1
vt 0.171875 1
vt 0.171875 0.921875
vt 0.109375 0.921875
vt 0 1
vt 0.09375 1
vt 0.09375 0.921875
vt 0 0.921875
vt 0.109375 1
vt 0.171875 1
vt 0.171875 0.921875
vt 0.109375 0.921875
vt 0 1
vt 0.09375 1
vt 0.09375 0.921875
vt 0 0.921875
vt 0.203125 0.890625
vt 0.234375 0.890625
vt 0.234375 0.859375
vt 0.203125 0.859375
vn 0 0 -1
vn 1 0 0
vn 0 0 1
vn -1 0 0
vn 0 -1 0
usemtl m_a8b5e7e7-7b10-1f76-9399-a6f694d1c092
f 68/144/36 71/143/36 69/142/36 66/141/36
f 67/148/37 68/147/37 66/146/37 65/145/37
f 72/152/38 67/151/38 65/150/38 70/149/38
f 71/156/39 72/155/39 70/154/39 69/153/39
f 71/160/40 68/159/40 67/158/40 72/157/40
o cube
v 0.18725625 -0.44994375625 0.28373125
v 0.18725625 -0.44994375625 0.03373124999999999
v 0.18725625 -0.45619375 0.28373125
v 0.18725625 -0.45619375 0.03373124999999999
v -0.18774375 -0.44994375625 0.03373124999999999
v -0.18774375 -0.44994375625 0.28373125
v -0.18774375 -0.45619375 0.03373124999999999
v -0.18774375 -0.45619375 0.28373125
vt 0 0.46875
vt 0 0.546875
vt 0.0625 0.546875
vt 0.0625 0.46875
vt 0 0.46875
vt 0 0.546875
vt 0.0625 0.546875
vt 0.0625 0.46875
vn 0 1 0
vn 0 -1 0
usemtl m_a8b5e7e7-7b10-1f76-9399-a6f694d1c092
f 78/164/41 73/163/41 74/162/41 77/161/41
f 79/168/42 76/167/42 75/166/42 80/165/42
o cube
v 0.18725625 -0.44994375625 -0.02876875000000001
v 0.18725625 -0.44994375625 -0.27876875
v 0.18725625 -0.45619375 -0.02876875000000001
v 0.18725625 -0.45619375 -0.27876875
v -0.18774375 -0.44994375625 -0.27876875
v -0.18774375 -0.44994375625 -0.02876875000000001
v -0.18774375 -0.45619375 -0.27876875
v -0.18774375 -0.45619375 -0.02876875000000001
vt 0 0.46875
vt 0 0.546875
vt 0.0625 0.546875
vt 0.0625 0.46875
vt 0 0.46875
vt 0 0.546875
vt 0.0625 0.546875
vt 0.0625 0.46875
vn 0 1 0
vn 0 -1 0
usemtl m_a8b5e7e7-7b10-1f76-9399-a6f694d1c092
f 86/172/43 81/171/43 82/170/43 85/169/43
f 87/176/44 84/175/44 83/174/44 88/173/44
o cube
v 0.12509375 0.31209544778881226 -0.12455928378134867
v 0.12509375 0.14467144612908556 -0.5287565792550366
v 0.12509375 0.1966105062249015 -0.07672385473571247
v 0.12509375 0.029186504565174687 -0.4809211502094004
v 0.00009375000000000355 0.14467144612908556 -0.5287565792550366
v 0.00009375000000000355 0.31209544778881226 -0.12455928378134867
v 0.00009375000000000355 0.029186504565174687 -0.4809211502094004
v 0.00009375000000000355 0.1966105062249015 -0.07672385473571247
vt 0.15625 0.4375
vt 0.1875 0.4375
vt 0.1875 0.40625
vt 0.15625 0.40625
vt 0.1875 0.578125
vt 0.1875 0.46875
vt 0.15625 0.46875
vt 0.15625 0.578125
vt 0.15625 0.46875
vt 0.15625 0.578125
vt 0.1875 0.578125
vt 0.1875 0.46875
vt 0.1875 0.46875
vt 0.15625 0.46875
vt 0.15625 0.578125
vt 0.1875 0.578125
vt 0.15625 0.578125
vt 0.1875 0.578125
vt 0.1875 0.46875
vt 0.15625 0.46875
vn 0 -0.3826834323650897 -0.9238795325112867
vn 1 0 0
vn -1 0 0
vn 0 0.9238795325112867 -0.3826834323650897
vn 0 -0.9238795325112867 0.3826834323650897
usemtl m_a8b5e7e7-7b10-1f76-9399-a6f694d1c092
f 92/180/45 95/179/45 93/178/45 90/177/45
f 91/184/46 92/183/46 90/182/46 89/181/46
f 95/188/47 96/187/47 94/186/47 93/185/47
f 94/192/48 89/191/48 90/190/48 93/189/48
f 95/196/49 92/195/49 91/194/49 96/193/49
o cube
v 0.12488125000000005 0.13547582893414867 0.5147334498379112
v 0.12488125000000005 0.3028998305938755 0.11053615436422337
v 0.12488125000000005 0.019990829627767215 0.4668979968745606
v 0.12488125000000005 0.18741483128749392 0.0627007014008727
v -0.00011874999999994529 0.3028998305938755 0.11053615436422337
v -0.00011874999999994529 0.13547582893414867 0.5147334498379112
v -0.00011874999999994529 0.18741483128749392 0.0627007014008727
v -0.00011874999999994529 0.019990829627767215 0.4668979968745606
vt 0.15625 0.46875
vt 0.15625 0.578125
vt 0.1875 0.578125
vt 0.1875 0.46875
vt 0.15625 0.4375
vt 0.1875 0.4375
vt 0.1875 0.40625
vt 0.15625 0.40625
vt 0.1875 0.578125
vt 0.1875 0.46875
vt 0.15625 0.46875
vt 0.15625 0.578125
vt 0.15625 0.578125
vt 0.1875 0.578125
vt 0.1875 0.46875
vt 0.15625 0.46875
vt 0.1875 0.46875
vt 0.15625 0.46875
vt 0.15625 0.578125
vt 0.1875 0.578125
vn 1 0 0
vn 0 -0.3826834323650897 0.9238795325112867
vn -1 0 0
vn 0 0.9238795325112867 0.3826834323650897
vn 0 -0.9238795325112867 -0.3826834323650897
usemtl m_a8b5e7e7-7b10-1f76-9399-a6f694d1c092
f 99/200/50 100/199/50 98/198/50 97/197/50
f 104/204/51 99/203/51 97/202/51 102/201/51
f 103/208/52 104/207/52 102/206/52 101/205/52
f 102/212/53 97/211/53 98/210/53 101/209/53
f 103/216/54 100/215/54 99/214/54 104/213/54
o cube
v 0.25 0.5625 0.1875
v 0.25 0.5625 -0.1875
v 0.25 0.1875 0.1875
v 0.25 0.1875 -0.1875
v -0.125 0.5625 -0.1875
v -0.125 0.5625 0.1875
v -0.125 0.1875 -0.1875
v -0.125 0.1875 0.1875
vt 0.34375 0.84375
vt 0.4375 0.84375
vt 0.4375 0.75
vt 0.34375 0.75
vt 0.234375 0.734375
vt 0.328125 0.734375
vt 0.328125 0.640625
vt 0.234375 0.640625
vt 0.234375 0.84375
vt 0.328125 0.84375
vt 0.328125 0.75
vt 0.234375 0.75
vt 0.125 0.84375
vt 0.21875 0.84375
vt 0.21875 0.75
vt 0.125 0.75
vt 0.125 0.640625
vt 0.125 0.734375
vt 0.21875 0.734375
vt 0.21875 0.640625
vt 0.234375 0.734375
vt 0.328125 0.734375
vt 0.328125 0.640625
vt 0.234375 0.640625
vn 0 0 -1
vn 1 0 0
vn 0 0 1
vn -1 0 0
vn 0 1 0
vn 0 -1 0
usemtl m_a8b5e7e7-7b10-1f76-9399-a6f694d1c092
f 108/220/55 111/219/55 109/218/55 106/217/55
f 107/224/56 108/223/56 106/222/56 105/221/56
f 112/228/57 107/227/57 105/226/57 110/225/57
f 111/232/58 112/231/58 110/230/58 109/229/58
f 110/236/59 105/235/59 106/234/59 109/233/59
f 111/240/60 108/239/60 107/238/60 112/237/60
o cube
v -0.0625 0.1875 0.0625
v -0.0625 0.1875 -0.0625
v -0.0625 0.125 0.0625
v -0.0625 0.125 -0.0625
v -0.125 0.1875 -0.0625
v -0.125 0.1875 0.0625
v -0.125 0.125 -0.0625
v -0.125 0.125 0.0625
vt 0 0.703125
vt 0.046875 0.703125
vt 0.046875 0.671875
vt 0 0.671875
vt 0 0.703125
vt 0.046875 0.703125
vt 0.046875 0.671875
vt 0 0.671875
vt 0 0.703125
vt 0.046875 0.703125
vt 0.046875 0.671875
vt 0 0.671875
vt 0 0.703125
vt 0.046875 0.703125
vt 0.046875 0.671875
vt 0 0.671875
vt 0 0.703125
vt 0.046875 0.703125
vt 0.046875 0.671875
vt 0 0.671875
vt 0 0.703125
vt 0.046875 0.703125
vt 0.046875 0.671875
vt 0 0.671875
vn 0 0 -1
vn 1 0 0
vn 0 0 1
vn -1 0 0
vn 0 1 0
vn 0 -1 0
usemtl m_a8b5e7e7-7b10-1f76-9399-a6f694d1c092
f 116/244/61 119/243/61 117/242/61 114/241/61
f 115/248/62 116/247/62 114/246/62 113/245/62
f 120/252/63 115/251/63 113/250/63 118/249/63
f 119/256/64 120/255/64 118/254/64 117/253/64
f 118/260/65 113/259/65 114/258/65 117/257/65
f 119/264/66 116/263/66 115/262/66 120/261/66